<svg class="w-16 shrink-0" viewBox="0 0 28 30" xmlns="http://www.w3.org/2000/svg"><path d="M3.887 30.002c.278-.095.68-.308 1.205-.638.737-.463 1.42-.959 2.048-1.492.628-.53 1.07-.986 1.32-1.364.251-.377.036-.48-.646-.308-.683.172-.925-.266-.727-1.312.197-1.046.754-2.444 1.67-4.193.916-1.75 2.156-3.73 3.718-5.942C14.038 12.54 15.88 10.32 18 8.09c.18-.206.251-.429.216-.67a1.962 1.962 0 0 0-.297-.745 3.53 3.53 0 0 0-.646-.746 5.579 5.579 0 0 0-.835-.617 75.904 75.904 0 0 1 5.227.076c1.688.086 3.216.215 4.581.387.359.034.673-.172.943-.617.27-.446.477-.978.62-1.595a7.13 7.13 0 0 0 .19-1.826c-.02-.6-.154-1.037-.405-1.312-.217-.206-.863-.334-1.94-.386-1.079-.051-2.417-.051-4.015 0-1.6.051-3.333.172-5.2.36-1.87.19-3.692.42-5.47.695-1.78.274-3.405.6-4.878.978-1.474.377-2.587.789-3.342 1.234-.215.103-.377.377-.485.823s-.116.892-.026 1.338c.089.446.287.806.592 1.08.305.275.763.309 1.375.104 1.113-.377 2.514-.67 4.203-.875a63.655 63.655 0 0 1 5.443-.41c-.755.582-1.617 1.457-2.587 2.622a63.663 63.663 0 0 0-3.018 3.962 71.602 71.602 0 0 0-3.017 4.656 117.847 117.847 0 0 0-2.64 4.656c-.792 1.474-1.42 2.795-1.887 3.961C.233 26.389 0 27.247 0 27.795c0 .103.116.283.35.54.233.258.53.515.89.772.358.257.753.48 1.185.669.237.103.464.179.68.226z" fill="#fff"></path></svg>
